<svg width="1024" height="820" xmlns="http://www.w3.org/2000/svg">
 <style type="text/css">.st0{fill:#10171D;stroke:#FFFFFF;stroke-width:5.96;}
	.st1{fill:#000211;}
	.st2{fill:#00CCFF;}
	.st3{fill:#FF00C4;}
	.st4{fill:#FDB300;}
	.st5{fill:#EA6C00;}
	.st6{fill:#FDAD00;}
	.st7{fill:#FDD231;}
	.st8{fill:#FEEEB7;}
	.st9{fill:url(#SVGID_1_);stroke:#2E3436;stroke-width:2.11;}
	.st10{fill:url(#SVGID_2_);}
	.st11{opacity:0.18;fill:none;stroke:url(#SVGID_3_);stroke-width:2.11;enable-background:new    ;}
	.st12{fill:url(#SVGID_4_);stroke:#888A85;stroke-width:2.11;}
	.st13{fill:url(#SVGID_5_);stroke:#000000;stroke-width:2.11;}
	.st14{fill:#2E3436;stroke:#000000;stroke-width:2.11;}
	.st15{opacity:0.28;fill:none;stroke:url(#SVGID_6_);stroke-width:2.1;enable-background:new    ;}
	.st16{fill:#FFFFFF;}
	.st17{fill:url(#SVGID_7_);stroke:#888A85;stroke-width:2.11;}
	.st18{fill:url(#SVGID_8_);stroke:#673907;stroke-width:2.11;stroke-linecap:round;}
	.st19{fill:url(#SVGID_9_);stroke:#888A85;stroke-width:2.11;stroke-linecap:round;}
	.st20{fill:none;stroke:#FFFFFF;stroke-width:2.11;stroke-linecap:round;stroke-linejoin:round;}
	.st21{fill:url(#SVGID_10_);}
	.st22{opacity:0.53;fill:#FFFFFF;enable-background:new    ;}
	.st23{opacity:0.43;fill:url(#SVGID_11_);enable-background:new    ;}
	.st24{fill:url(#SVGID_12_);}
	.st25{fill:#706D6D;}
	.st26{fill:#BFBFBF;}
	.st27{fill:#414141;}
	.st28{fill:#E8E6E6;}
	.st29{fill:#1C1C1C;}
	.st30{fill:#686868;}
	.st31{fill:#DA0100;}
	.st32{fill:#3F4957;}
	.st33{enable-background:new    ;}
	.st34{fill:#8A95AE;}</style>

 <g>
  <title>background</title>
  <rect fill="#ffff00" id="canvas_background" height="822" width="1026" y="-1" x="-1"/>
 </g>
 <g>
  <title>Layer 1</title>
  <path id="svg_1" d="m3,43.7l0,732.7c0,22.4 18.3,40.6 40.8,40.6l936.4,0c22.5,0 40.8,-18.2 40.8,-40.7l0,-732.6c0,-22.5 -18.3,-40.7 -40.8,-40.7l-936.4,0c-22.5,0 -40.8,18.2 -40.8,40.7z" class="st0"/>
  <path id="svg_2" d="m70.8,683.7l0,52c0,4.4 3.6,8 8,8l44,0c4.4,0 8,-3.6 8,-8l0,-52c0,-4.4 -3.6,-8 -8,-8l-44,0c-4.4,0 -8,3.6 -8,8z" class="st1"/>
  <path id="svg_3" d="m78.8,675.7l44,0c4.4,0 8,3.6 8,8l0,52c0,4.4 -3.6,8 -8,8l-44,0c-4.4,0 -8,-3.6 -8,-8l0,-10.7l-8.6,0c-3.4,0 -6.2,-2.8 -6.2,-6.2l0,-16.6c0,-3.4 2.8,-6.2 6.2,-6.2l0,0l8.6,0l0,-12.3c0,-4.4 3.6,-8 8,-8l0,0zm-1.8,62.3l48,0l0,-56l-48,0l0,14l25.8,0c3.4,0 6.2,2.8 6.2,6.2l0,16.6c0,3.4 -2.8,6.2 -6.2,6.2l0,0l-25.8,0l0,13z" class="st2"/>
  <path id="svg_4" d="m74.9,707c0,1.7 -0.5,3 -1.6,3.9s-2.6,1.3 -4.5,1.3l-1.4,0l0,5.6l-3.4,0l0,-15.7l5,0c1.9,0 3.3,0.4 4.3,1.2c1.1,0.9 1.6,2.1 1.6,3.7zm-7.5,-2.1l0,4.7l1.1,0c1,0 1.8,-0.2 2.3,-0.6c0.5,-0.4 0.8,-1 0.8,-1.8s-0.2,-1.4 -0.6,-1.7c-0.4,-0.4 -1.1,-0.6 -2,-0.6l-1.6,0l0,0zm19.7,8.6c0,1.4 -0.5,2.5 -1.5,3.3s-2.4,1.2 -4.2,1.2c-1.5,0 -3.1,-0.3 -4.4,-1l0,-3c1.1,0.5 2,0.8 2.7,1s1.4,0.3 2,0.3c0.7,0 1.3,-0.1 1.7,-0.4c0.4,-0.3 0.6,-0.7 0.6,-1.2c0,-0.3 -0.1,-0.6 -0.3,-0.8c-0.2,-0.3 -0.5,-0.5 -0.8,-0.7s-1,-0.6 -2,-1.1c-0.8,-0.3 -1.5,-0.8 -2.2,-1.3c-0.5,-0.4 -0.9,-0.9 -1.2,-1.5c-0.3,-0.6 -0.4,-1.3 -0.4,-1.9c0,-1.4 0.5,-2.5 1.4,-3.3c1.1,-0.8 2.5,-1.3 3.9,-1.2c0.8,0 1.6,0.1 2.3,0.3c0.7,0.2 1.5,0.5 2.3,0.8l-1.1,2.6c-0.8,-0.3 -1.5,-0.6 -2.1,-0.7c-0.5,-0.1 -1.1,-0.2 -1.6,-0.2c-0.6,0 -1.1,0.2 -1.4,0.4s-0.5,0.7 -0.5,1.2c0,0.3 0.1,0.5 0.2,0.8c0.1,0.2 0.3,0.4 0.6,0.6c0.3,0.2 1,0.6 2.1,1.1c1.2,0.5 2.2,1.2 3,2.1c0.7,0.7 0.9,1.5 0.9,2.6l0,0zm15.9,-3.7c0,2.6 -0.7,4.6 -2.2,5.9c-1.5,1.4 -3.6,2.1 -6.4,2.1l-4.4,0l0,-15.7l4.9,0c2.6,0 4.6,0.7 6,2c1.4,1.4 2.1,3.3 2.1,5.7l0,0zm-3.5,0.1c0,-3.4 -1.5,-5.1 -4.5,-5.1l-1.8,0l0,10.2l1.4,0c3.3,0.1 4.9,-1.6 4.9,-5.1z"/>
  <path id="svg_5" d="m226.8,683.7l0,52c0,4.4 3.6,8 8,8l44,0c4.4,0 8,-3.6 8,-8l0,-52c0,-4.4 -3.6,-8 -8,-8l-44,0c-4.4,0 -8,3.6 -8,8l0,0z" class="st1"/>
  <path id="svg_6" d="m234.8,675.7l44,0c4.4,0 8,3.6 8,8l0,52c0,4.4 -3.6,8 -8,8l-44,0c-4.4,0 -8,-3.6 -8,-8l0,-10.7l-8.6,0c-3.4,0 -6.2,-2.8 -6.2,-6.2l0,-16.6c0,-3.4 2.8,-6.2 6.2,-6.2l0,0l8.6,0l0,-12.3c0,-4.4 3.6,-8 8,-8l0,0zm-1.8,62.3l48,0l0,-56l-48,0l0,14l25.8,0c3.4,0 6.2,2.8 6.2,6.2l0,16.6c0,3.4 -2.8,6.2 -6.2,6.2l0,0l-25.8,0l0,13z" class="st3"/>
  <path id="svg_7" d="m233.1,709.9l5.3,7.9l-3.8,0l-3.6,-5.9l-3.6,5.9l-3.6,0l5.2,-8.1l-4.9,-7.6l3.7,0l3.4,5.7l3.3,-5.7l3.6,0l-5,7.8zm20.3,-0.1c0,2.6 -0.7,4.6 -2.2,5.9c-1.5,1.4 -3.6,2.1 -6.4,2.1l-4.4,0l0,-15.7l4.9,0c2.6,0 4.6,0.7 6,2c1.4,1.4 2.1,3.3 2.1,5.7l0,0zm-3.5,0.1c0,-3.4 -1.5,-5.1 -4.5,-5.1l-1.8,0l0,10.2l1.4,0c3.3,0.1 4.9,-1.6 4.9,-5.1l0,0z"/>
  <path id="svg_8" d="m388.7,681.6l21.4,-2.3l21.4,2.3l16.6,22.3l-38,44.3l-38,-44.3l16.6,-22.3z" class="st4"/>
  <path id="svg_9" d="m372.1,703.9l38,44.3l-22.6,-44.3l-15.4,0zm60.7,0l-22.6,44.3l38,-44.3l-15.4,0z" class="st5"/>
  <path id="svg_10" d="m410.2,748.2l22.6,-44.3l-45.3,0l22.7,44.3z" class="st6"/>
  <g id="svg_11">
   <path id="svg_12" d="m410.2,679.3l-21.4,2.3l-1.2,22.3l22.6,-24.6zm22.6,24.6l-1.2,-22.3l-21.4,-2.3l22.6,24.6z" class="st7"/>
   <path id="svg_13" d="m448.2,703.9l-16.6,-22.3l1.2,22.3l15.4,0zm-60.7,0l1.2,-22.3l-16.6,22.3l15.4,0z" class="st6"/>
   <path id="svg_14" d="m410.2,679.3l-22.6,24.5l45.3,0l-22.7,-24.5z" class="st8"/>
  </g>
  <g id="svg_15">
   <g id="svg_16">
    <ellipse id="svg_17" ry="9.3" rx="21.5" cy="729.2" cx="578.7"/>
   </g>
   <path id="svg_18" d="m551.9,688.1c0,0 6.1,12.5 20.3,12.2c29.7,-0.8 35,-16.3 35.7,-18.5s1.9,-1.9 2.2,0.2c9.7,88 -67.3,50.3 -70,35.3c15.3,-4.5 11.6,-13.1 11.6,-13.1l0.2,-16.1z" class="st9"/>
   <path id="svg_19" d="m563.2,725.2c14.2,2.8 21.5,0.2 25.7,-3.1c-1.1,-1.5 -3,-3 -3,-3s5,1.4 6.7,3.6c1.7,2.2 0.7,3.6 0.2,6.5c-1,-2.5 -2.9,-3.5 -3.2,-4.5c-3.8,5.4 -13.3,5.1 -26.4,0.5l0,0z" class="st10"/>
   <path id="svg_20" d="m608,686.7c-1.5,2.5 -3.4,4.7 -5.7,6.5c-5.5,4.6 -14.9,8.8 -30.1,9.2c-8.9,0.2 -14.7,-4.1 -18.2,-7.9l-0.3,9.4c0.3,0.9 0.9,2.9 -0.1,5.7c-1.1,3 -4.5,6.1 -10.5,8.4c0.5,1.1 1,2.2 2.6,3.8c2.6,2.5 5.6,4.7 8.8,6.5c7.2,4.1 16.5,7.4 25.1,7.5c8.7,0.2 16.6,-2.6 22,-10.5c5.1,-7.3 7.8,-19.7 6.4,-38.6l0,0z" class="st11"/>
   <path id="svg_21" d="m567.3,706.9c0,4.7 -3.8,8.6 -8.5,8.6c-1.5,0 -3,-0.4 -4.3,-1.2c-4.1,-2.4 -5.5,-7.6 -3.1,-11.7c2.4,-4.1 7.6,-5.5 11.7,-3.1c2.6,1.5 4.2,4.4 4.2,7.4z" class="st12"/>
   <path id="svg_22" d="m550.2,710.1c4.2,5.8 4.2,12.8 0.1,15.8s-10.8,0.7 -14.9,-5.1s-4.2,-12.8 -0.1,-15.8s10.8,-0.6 14.9,5.1z" class="st13"/>
   <path id="svg_23" d="m564.9,708.2c0,2.3 -1.9,4.1 -4.1,4.1s-4.1,-1.9 -4.1,-4.1s1.9,-4.1 4.1,-4.1s4.1,1.8 4.1,4.1z" class="st14"/>
   <path id="svg_24" d="m536.1,706.9c-1.3,1 -2.1,2.7 -2,5c0.2,2.8 1.2,5.5 2.9,7.7c1.6,2.3 3.9,4 6.5,4.9c2.2,0.7 4,0.5 5.4,-0.5c1.3,-1 2.1,-2.8 2,-5.1c-0.1,-2.8 -1.1,-5.4 -2.8,-7.6c-1.6,-2.2 -3.9,-3.9 -6.5,-4.8c-2.3,-0.8 -4.2,-0.6 -5.5,0.4l0,0z" class="st15"/>
   <path id="svg_25" d="m542.3,710.8c0,1.6 -0.7,3.1 -1.9,3.9c-1.1,0.8 -2.6,0.8 -3.7,0c-1.2,-0.9 -1.9,-2.4 -1.9,-3.9c0,-1.6 0.7,-3.1 1.9,-3.9c1.1,-0.8 2.6,-0.8 3.7,0c1.2,0.9 1.9,2.4 1.9,3.9zm19.7,-4.5c0,1.6 -1.3,2.9 -2.9,2.9c-1.6,0 -2.9,-1.3 -2.9,-2.9l0,0c0,-1.6 1.3,-2.9 2.9,-2.9c1.7,0 2.9,1.3 2.9,2.9z" class="st16"/>
   <path id="svg_26" d="m586.5,707.8c0,5.6 -4.5,10.1 -10,10.1c-1.8,0 -3.5,-0.5 -5.1,-1.4c-4.8,-2.8 -6.5,-8.9 -3.7,-13.8c2.8,-4.8 8.9,-6.5 13.8,-3.7c3.1,1.9 5,5.2 5,8.8z" class="st17"/>
   <path id="svg_27" d="m583.7,709.3c0,2.7 -2.2,4.9 -4.8,4.9c-2.7,0 -4.9,-2.2 -4.9,-4.9l0,0c0,-2.7 2.2,-4.8 4.8,-4.8c2.7,0 4.9,2.1 4.9,4.8z" class="st14"/>
   <path id="svg_28" d="m580.3,707.1c0,1.9 -1.5,3.4 -3.4,3.4s-3.4,-1.5 -3.4,-3.4l0,0c0,-1.9 1.5,-3.4 3.4,-3.4c1.9,0 3.4,1.5 3.4,3.4z" class="st16"/>
   <path id="svg_29" d="m607.2,737.9l2,-3.9c-7.3,-5.3 -20.7,-9.2 -20.7,-9.2c-2.3,-1.1 -3.1,1 -1.5,2.4c0,0 11.5,8.2 20.2,10.7l0,0z" class="st18"/>
   <path id="svg_30" d="m616.5,741.5l1,-2.3l-8.1,-5.2l-0.7,-0.1l-0.3,-0.9c-1.2,0.7 -2.9,3.5 -2.4,5l0.9,-0.3l0.5,0.5l9.1,3.3l0,0z" class="st19"/>
   <path id="svg_31" d="m611.2,737.1l5.4,2.3" class="st20"/>
   <path id="svg_32" d="m628.3,751.3c-2.5,-8.6 -3.4,-15.4 -10,-14.8c-5.3,0.5 -5.7,8.1 -0.2,10.2c3.4,1.4 6.9,3 10.2,4.6z" class="st21"/>
   <path id="svg_33" d="m618.7,737.2c1.2,-0.3 2.4,0.3 2.8,1.5c0.1,0.4 0.1,0.8 0,1.1c-0.4,1.2 -1.7,1.8 -2.8,1.4c-1,-0.3 -1.7,-1.4 -1.5,-2.4c0.1,-0.7 0.7,-1.3 1.5,-1.6l0,0z" class="st22"/>
   <path id="svg_34" d="m609,734.1c0.5,-0.2 1.1,0 1.5,0.3c0.6,0.6 0.6,1.5 0.1,2.1c-0.6,0.6 -1.5,0.6 -2.1,0.1c-0.6,-0.6 -0.6,-1.5 -0.1,-2.1c0.1,-0.2 0.3,-0.4 0.6,-0.4z" class="st16"/>
   <path id="svg_35" d="m625.1,746.2c0,0 -0.8,-3.1 -2.6,-4.7c-0.6,-0.6 0.2,-1.4 0.8,-0.7c1.3,1.6 1.8,5.4 1.8,5.4z" class="st23"/>
   <path id="svg_36" d="m578.5,728.7c3.2,0.3 6,-0.6 7.2,-1c0.3,-2.1 2.2,-3.6 4.3,-3.6l-1.1,-2c0,0 -4.2,2.8 -8.6,3.7l-1.8,2.9z" class="st24"/>
  </g>
  <g id="svg_37">
   <path id="svg_38" d="m762.7,674l-29.4,0c-3.9,0 -7,3.1 -7,7l0,0l0,2.3l43.5,0l0,-2.3c-0.1,-3.9 -3.2,-7 -7.1,-7l0,0l0,0z" class="st25"/>
   <path id="svg_39" d="m789.7,683.4l-83.4,0c-4.6,0 -8.3,3.7 -8.3,8.3l0,42.5c0,4.6 3.7,8.3 8.3,8.3l83.4,0c4.6,0 8.3,-3.7 8.3,-8.3l0,-42.5c0,-4.6 -3.7,-8.3 -8.3,-8.3l0,0z" class="st26"/>
   <path id="svg_40" d="m798,692.7l-100,0l0,40.4l100,0l0,-40.4z" class="st27"/>
   <path id="svg_41" d="m748,685.9c-14.9,0 -27.1,12.1 -27.1,27s12.1,27.1 27.1,27.1l0,0c14.9,0 27.1,-12.1 27,-27.1c0,-14.9 -12.1,-27 -27,-27z" class="st28"/>
   <path id="svg_42" d="m748,693.8c-10.6,0 -19.2,8.6 -19.2,19.2s8.6,19.2 19.2,19.2s19.2,-8.6 19.2,-19.2s-8.6,-19.2 -19.2,-19.2z" class="st29"/>
   <path id="svg_43" d="m740.1,699.3c-3.1,-0.1 -5.8,2.3 -5.9,5.4c-0.1,3.1 2.3,5.8 5.4,5.9c0.2,0 0.3,0 0.5,0c3.1,-0.1 5.6,-2.8 5.4,-5.9c-0.1,-2.9 -2.4,-5.3 -5.4,-5.4z" class="st30"/>
   <path id="svg_44" d="m791.8,694.5c-1.3,0 -2.4,1.1 -2.4,2.4s1.1,2.4 2.4,2.4s2.4,-1.1 2.4,-2.4s-1.1,-2.4 -2.4,-2.4z" class="st31"/>
  </g>
  <g id="svg_45">
   <path id="svg_46" d="m864,688.8l0,50.2c0,5.5 4.6,10 10.2,10l81.4,0c5.6,0 10.1,-4.5 10.2,-10l0,0l0,-50.2c0,-5.5 -4.6,-10 -10.2,-10l-81.4,0c-5.6,-0.1 -10.2,4.4 -10.2,10l0,0z"/>
   <path id="svg_47" d="m876.9,697c-1.1,0.1 -2.1,-0.2 -3,-0.8c-0.7,-0.6 -1.2,-1.5 -1.4,-2.7l2.6,-0.4c0.1,0.6 0.3,1.1 0.6,1.4s0.7,0.5 1.2,0.5s0.9,-0.2 1.2,-0.5s0.4,-0.8 0.4,-1.5l0,-6.5l-2.5,0l0,-2l5.1,0l0,8.5c0,1.3 -0.4,2.3 -1.1,3c-0.8,0.7 -1.9,1.1 -3.1,1l0,0zm17.1,-8.7c0,0.8 -0.2,1.5 -0.5,2.1c-0.4,0.6 -0.9,1.1 -1.6,1.5c-0.7,0.3 -1.5,0.5 -2.5,0.5l-3.1,0l0,4.4l-2.6,0l0,-12.4l5.7,0c1.5,0 2.7,0.3 3.5,1c0.7,0.8 1.2,1.8 1.1,2.9l0,0zm-2.6,0.1c0,-1.3 -0.8,-2 -2.3,-2l-2.7,0l0,4l2.8,0c0.7,0 1.3,-0.2 1.7,-0.5c0.3,-0.3 0.5,-0.9 0.5,-1.5zm10.5,6.6c0.7,0 1.3,-0.1 2,-0.3c0.6,-0.2 1.1,-0.5 1.5,-0.8l0,-1.7l-3.1,0l0,-1.9l5.5,0l0,4.6c-0.7,0.7 -1.6,1.3 -2.6,1.6c-1.1,0.4 -2.2,0.6 -3.4,0.6c-2,0 -3.6,-0.6 -4.7,-1.7s-1.7,-2.7 -1.7,-4.8c0,-2 0.5,-3.6 1.7,-4.7s2.7,-1.6 4.8,-1.6c3,0 4.8,1.1 5.6,3.2l-2.4,0.7c-0.2,-0.6 -0.7,-1.1 -1.2,-1.4c-0.6,-0.3 -1.3,-0.5 -2,-0.5c-1.2,0 -2.2,0.4 -2.8,1.1c-0.6,0.7 -1,1.8 -1,3.2s0.3,2.5 1,3.3c0.6,0.7 1.5,1.1 2.8,1.1l0,0zm28.8,-6.7c0,0.8 -0.2,1.5 -0.5,2.1c-0.4,0.6 -0.9,1.1 -1.6,1.5c-0.7,0.3 -1.5,0.5 -2.5,0.5l-3.1,0l0,4.4l-2.6,0l0,-12.4l5.7,0c1.5,0 2.7,0.3 3.5,1c0.7,0.8 1.1,1.8 1.1,2.9l0,0zm-2.7,0.1c0,-1.3 -0.8,-2 -2.3,-2l-2.7,0l0,4l2.8,0c0.7,0 1.3,-0.2 1.7,-0.5c0.3,-0.3 0.5,-0.9 0.5,-1.5zm15.3,8.4l-3.1,0l-5.5,-9.6c0.1,0.9 0.2,1.7 0.2,2.2l0,7.3l-2.3,0l0,-12.4l3,0l5.6,9.7c-0.1,-0.9 -0.2,-1.7 -0.2,-2.4l0,-7.2l2.3,0l0,12.4zm8.4,-1.8c0.7,0 1.3,-0.1 2,-0.3c0.6,-0.2 1.1,-0.5 1.5,-0.8l0,-1.7l-3.1,0l0,-1.9l5.5,0l0,4.6c-0.7,0.7 -1.6,1.3 -2.6,1.6c-1.1,0.4 -2.2,0.6 -3.4,0.6c-2,0 -3.6,-0.6 -4.7,-1.7s-1.7,-2.7 -1.7,-4.8c0,-2 0.5,-3.6 1.7,-4.7s2.7,-1.6 4.8,-1.6c3,0 4.8,1.1 5.6,3.2l-2.4,0.7c-0.2,-0.6 -0.7,-1.1 -1.2,-1.4c-0.6,-0.3 -1.3,-0.5 -2,-0.5c-1.2,0 -2.2,0.4 -2.8,1.1c-0.6,0.7 -1,1.8 -1,3.2s0.3,2.5 1,3.3c0.7,0.7 1.6,1.1 2.8,1.1l0,0zm-71.2,19.1c0.7,0 1.3,-0.1 2,-0.3c0.6,-0.2 1.1,-0.5 1.5,-0.8l0,-1.7l-3.1,0l0,-1.9l5.5,0l0,4.6c-0.7,0.7 -1.6,1.3 -2.6,1.6c-1.1,0.4 -2.2,0.6 -3.4,0.6c-2,0 -3.6,-0.6 -4.7,-1.7s-1.7,-2.7 -1.7,-4.8c0,-2 0.5,-3.6 1.7,-4.7s2.7,-1.6 4.8,-1.6c3,0 4.8,1.1 5.6,3.2l-2.4,0.7c-0.2,-0.6 -0.7,-1.1 -1.2,-1.4c-0.6,-0.3 -1.3,-0.5 -2,-0.5c-1.2,0 -2.2,0.4 -2.8,1.1c-0.6,0.7 -1,1.8 -1,3.2s0.3,2.5 1,3.3c0.6,0.7 1.6,1 2.8,1.1l0,0zm10.9,1.8l-2.6,0l0,-12.4l2.6,0l0,12.4zm11.7,-10.4l-6.7,0l0,3.8l6.5,0l0,2l-6.5,0l0,4.6l-2.6,0l0,-12.4l9.3,0l0,2zm27,0l-4.1,0l0,10.4l-2.6,0l0,-10.4l-4.1,0l0,-2l10.8,0l0,2zm4,10.4l-2.6,0l0,-12.4l2.6,0l0,12.4zm11.8,-10.4l-6.7,0l0,3.8l6.5,0l0,2l-6.5,0l0,4.6l-2.6,0l0,-12.4l9.3,0l0,2zm11.2,0l-6.7,0l0,3.8l6.5,0l0,2l-6.5,0l0,4.6l-2.6,0l0,-12.4l9.3,0l0,2zm-72.8,25.9c0,1.2 -0.5,2.2 -1.4,2.8s-2.2,1 -4,1c-1.3,0.1 -2.6,-0.2 -3.8,-0.8c-0.9,-0.6 -1.6,-1.5 -1.8,-2.6l2.5,-0.4c0.2,0.7 0.5,1.1 1,1.4c0.5,0.3 1.2,0.4 2.1,0.4c1.8,0 2.8,-0.5 2.8,-1.7c0,-0.3 -0.1,-0.6 -0.3,-0.9c-0.2,-0.3 -0.6,-0.4 -0.9,-0.6c-0.7,-0.2 -1.5,-0.4 -2.2,-0.6c-0.9,-0.2 -1.6,-0.4 -2,-0.5s-0.7,-0.3 -1,-0.5c-0.6,-0.3 -1,-0.9 -1.2,-1.5c-0.1,-0.4 -0.2,-0.8 -0.2,-1.2c0,-1.1 0.4,-2 1.3,-2.6c0.9,-0.6 2.1,-0.9 3.7,-0.9c1.6,0 2.7,0.2 3.5,0.7s1.4,1.4 1.5,2.4l-2.6,0.3c-0.1,-0.5 -0.4,-0.9 -0.8,-1.2s-1,-0.4 -1.7,-0.4c-1.6,0 -2.4,0.5 -2.4,1.5c0,0.3 0.1,0.6 0.2,0.8c0.2,0.2 0.4,0.4 0.8,0.5c0.3,0.1 1,0.3 2,0.5c1.2,0.2 2.1,0.5 2.6,0.7s0.9,0.5 1.2,0.8s0.5,0.6 0.7,1c0.3,0.6 0.4,1.1 0.4,1.6l0,0zm12.8,-8.8l-4.6,12.4l-2.7,0l-4.7,-12.4l2.8,0l2.6,8c0.2,0.5 0.4,1.3 0.7,2.3l0.2,-0.8l0.5,-1.6l2.6,-8l2.6,0.1zm7.3,10.5c0.7,0 1.3,-0.1 2,-0.3c0.6,-0.2 1.1,-0.5 1.5,-0.8l0,-1.7l-3.1,0l0,-1.9l5.5,0l0,4.6c-0.7,0.7 -1.6,1.3 -2.6,1.6c-1.1,0.4 -2.2,0.6 -3.4,0.6c-2,0 -3.6,-0.6 -4.7,-1.7s-1.7,-2.7 -1.7,-4.8c0,-2 0.5,-3.6 1.7,-4.7s2.7,-1.6 4.8,-1.6c3,0 4.8,1.1 5.6,3.2l-2.4,0.7c-0.2,-0.6 -0.7,-1.1 -1.2,-1.4c-0.6,-0.3 -1.3,-0.5 -2,-0.5c-1.2,0 -2.2,0.4 -2.8,1.1c-0.6,0.7 -1,1.8 -1,3.2s0.3,2.5 1,3.3c0.7,0.7 1.6,1.1 2.8,1.1l0,0zm28.8,-6.6c0,0.8 -0.2,1.5 -0.5,2.1c-0.4,0.6 -0.9,1.1 -1.6,1.5c-0.7,0.3 -1.5,0.5 -2.5,0.5l-3.1,0l0,4.4l-2.6,0l0,-12.4l5.7,0c1.5,0 2.7,0.3 3.5,1c0.7,0.7 1.2,1.8 1.1,2.9l0,0zm-2.6,0c0,-1.3 -0.8,-2 -2.3,-2l-2.7,0l0,4l2.8,0c0.7,0 1.3,-0.2 1.7,-0.5c0.3,-0.3 0.5,-0.8 0.5,-1.5zm15.7,2.2c0,1.3 -0.3,2.4 -0.8,3.4c-0.5,0.9 -1.2,1.7 -2.2,2.2c-0.9,0.5 -2,0.8 -3.2,0.8l-5.1,0l0,-12.4l4.6,0c2.1,0 3.8,0.5 4.9,1.6c1.2,0.9 1.8,2.4 1.8,4.4l0,0zm-2.7,0c0,-1.3 -0.3,-2.3 -1.1,-3c-0.7,-0.7 -1.7,-1.1 -3,-1.1l-1.9,0l0,8.4l2.2,0c1,0 2,-0.4 2.7,-1.2c0.8,-0.8 1.1,-1.8 1.1,-3.1zm14,-4.1l-6.7,0l0,3.8l6.5,0l0,2l-6.5,0l0,4.6l-2.6,0l0,-12.4l9.3,0l0,2zm-45.9,19.5l-2.6,0l0,-2.7l2.6,0l0,2.7zm5.1,0l-2.6,0l0,-2.7l2.6,0l0,2.7zm5.1,0l-2.6,0l0,-2.7l2.6,0l0,2.7z" class="st16"/>
  </g>
  <path id="svg_48" d="m65,789.7l-3.2,0l0,-3.7l3.2,0l0,3.7zm24,-16.3c0,2.2 -0.7,4 -2.2,5.3c-1.4,1.3 -3.4,2 -5.9,2l-6.9,0l0,9.1l-3.2,0l0,-23.3l9.9,0c2.6,0 4.7,0.6 6.1,1.8c1.5,1.1 2.2,2.8 2.2,5.1l0,0zm-3.2,0c0,-3 -1.8,-4.5 -5.5,-4.5l-6.3,0l0,9.2l6.4,0c3.7,0 5.4,-1.6 5.4,-4.7zm26.2,9.8c0,2.2 -0.8,3.8 -2.6,5c-1.7,1.2 -4.1,1.8 -7.1,1.8c-5.7,0 -9,-2 -9.9,-5.9l3.1,-0.6c0.3,1.3 1.1,2.4 2.3,3.1c1.2,0.7 2.7,1 4.7,1c2.1,0 3.6,-0.3 4.7,-1c1.1,-0.6 1.7,-1.8 1.7,-3.1c0,-0.8 -0.2,-1.4 -0.5,-1.9c-0.4,-0.5 -0.9,-0.9 -1.5,-1.2s-1.4,-0.6 -2.3,-0.8l-2.9,-0.7c-1.4,-0.3 -2.9,-0.7 -4.2,-1.2c-0.8,-0.3 -1.6,-0.8 -2.3,-1.4c-0.5,-0.5 -1,-1.1 -1.3,-1.8s-0.4,-1.5 -0.4,-2.3c0,-2 0.8,-3.5 2.3,-4.6s3.7,-1.6 6.6,-1.6c2.7,0 4.7,0.4 6.1,1.2s2.4,2.2 3,4.1l-3.1,0.5c-0.3,-1.1 -1,-2.1 -2,-2.7c-1.2,-0.6 -2.6,-0.9 -4,-0.8c-1.9,0 -3.3,0.3 -4.3,0.9c-1,0.6 -1.5,1.6 -1.5,2.8c0,0.7 0.2,1.3 0.6,1.8s0.9,0.9 1.7,1.2c0.7,0.3 2.2,0.7 4.3,1.2l2.2,0.5c0.7,0.2 1.4,0.4 2.1,0.6c0.7,0.2 1.3,0.5 1.8,0.8c0.6,0.3 1.1,0.7 1.5,1.2s0.8,1 1,1.6c0.1,0.8 0.2,1.5 0.2,2.3l0,0zm24.5,-5.4c0,2.4 -0.5,4.5 -1.4,6.3c-0.9,1.7 -2.3,3.2 -4,4.1c-1.8,1 -3.9,1.5 -6,1.4l-8.8,0l0,-23.3l7.8,0c4,0 7,1 9.2,3c2.1,2 3.2,4.8 3.2,8.5l0,0zm-3.2,0c0,-2.9 -0.8,-5.1 -2.4,-6.6c-1.6,-1.5 -3.9,-2.3 -6.9,-2.3l-4.5,0l0,18.3l5.2,0c1.7,0 3.2,-0.4 4.5,-1.1c1.3,-0.8 2.4,-1.9 3,-3.2c0.8,-1.5 1.1,-3.2 1.1,-5.1l0,0zm96.4,11.9l-3.2,0l0,-3.7l3.2,0l0,3.7zm25.1,0l-3.5,0l-7,-10.2l-7.2,10.2l-3.5,0l8.9,-12.1l-8.2,-11.2l3.5,0l6.5,9.2l6.3,-9.2l3.5,0l-8,11.1l8.7,12.2zm23.7,-11.9c0,2.4 -0.5,4.5 -1.4,6.3c-0.9,1.7 -2.3,3.2 -4,4.1c-1.8,1 -3.9,1.5 -6,1.4l-8.8,0l0,-23.3l7.8,0c4,0 7,1 9.2,3c2.1,2 3.2,4.8 3.2,8.5l0,0zm-3.2,0c0,-2.9 -0.8,-5.1 -2.4,-6.6s-3.9,-2.3 -6.9,-2.3l-4.5,0l0,18.3l5.2,0c1.7,0 3.2,-0.4 4.5,-1.1c1.3,-0.8 2.4,-1.9 3,-3.2c0.8,-1.5 1.1,-3.2 1.1,-5.1l0,0zm86.9,11.9l-3.2,0l0,-3.7l3.2,0l0,3.7zm18.9,-5c0,1.7 -0.6,3 -1.9,3.9s-3.1,1.4 -5.4,1.4c-2.2,0 -4,-0.4 -5.2,-1.1c-1.2,-0.8 -2.1,-2 -2.4,-3.5l2.6,-0.5c0.2,0.9 0.8,1.7 1.6,2.1c0.8,0.4 1.9,0.7 3.3,0.7c1.5,0 2.6,-0.2 3.3,-0.7c0.7,-0.5 1.1,-1.2 1.1,-2.1c0,-0.7 -0.2,-1.3 -0.7,-1.7c-0.7,-0.5 -1.5,-0.9 -2.4,-1.1l-2.1,-0.6c-1.3,-0.3 -2.5,-0.7 -3.7,-1.3c-0.7,-0.4 -1.3,-0.9 -1.7,-1.6c-0.4,-0.7 -0.6,-1.4 -0.6,-2.2c0,-1.6 0.6,-2.9 1.8,-3.7c1.2,-0.9 2.9,-1.3 5.1,-1.3c2,0 3.6,0.3 4.7,1c1.2,0.7 2,2 2.2,3.3l-2.7,0.3c-0.2,-0.8 -0.6,-1.4 -1.4,-1.8c-0.9,-0.5 -1.9,-0.7 -2.9,-0.7c-1.4,0 -2.4,0.2 -3,0.6c-0.6,0.4 -1,1.1 -1,1.9c0,0.5 0.1,0.9 0.4,1.3s0.7,0.6 1.2,0.8s1.6,0.5 3.3,1c1.6,0.4 2.7,0.8 3.4,1.1c0.7,0.3 1.2,0.7 1.6,1.1c1.1,1 1.6,2.2 1.5,3.4l0,0zm18.4,5l-3.5,0l-6.1,-8.2l-2.2,1.8l0,6.4l-3,0l0,-24.6l3,0l0,15.4l7.9,-8.7l3.5,0l-7.3,7.7l7.7,10.2zm17.3,-8.4l-12.8,0c0,2 0.4,3.6 1.3,4.8c0.9,1.1 2.1,1.7 3.7,1.7c1.3,0 2.3,-0.3 3.1,-0.8c0.7,-0.5 1.3,-1.2 1.6,-2l2.6,0.8c-1.1,2.8 -3.5,4.2 -7.3,4.2c-2.7,0 -4.7,-0.8 -6.1,-2.4c-1.4,-1.6 -2.1,-3.9 -2.1,-7c0,-3 0.7,-5.2 2.1,-6.8s3.4,-2.4 6,-2.4c5.3,0 7.9,3.2 7.9,9.5l0,0.4l0,0zm-12.8,-2.2l9.7,0c-0.2,-1.9 -0.6,-3.3 -1.5,-4.1c-0.8,-0.9 -2,-1.3 -3.4,-1.3c-1.5,0 -2.6,0.5 -3.5,1.5c-0.8,1 -1.3,2.4 -1.3,3.9l0,0zm23.6,8.2l0,2.2c-1,0.3 -2,0.4 -3,0.4c-2.4,0 -3.6,-1.3 -3.6,-4.1l0,-12l-2.1,0l0,-2.2l2.2,0l0.9,-4l2,0l0,4l3.3,0l0,2.2l-3.3,0l0,11.3c0,0.9 0.1,1.5 0.4,1.8s0.8,0.5 1.5,0.5c0.4,0.2 0.9,0.1 1.7,-0.1l0,0zm4.8,-6.7c0,2.4 0.4,4.2 1.1,5.3c0.8,1.2 1.9,1.7 3.4,1.7c1.1,0 2,-0.3 2.7,-0.9c0.8,-0.7 1.2,-1.6 1.3,-2.7l3,0.2c-0.2,1.6 -1,3.1 -2.2,4.1c-1.3,1.1 -3,1.6 -4.7,1.5c-2.5,0 -4.4,-0.8 -5.8,-2.4c-1.3,-1.6 -2,-3.9 -2,-6.9s0.7,-5.3 2,-6.9c1.3,-1.6 3.2,-2.4 5.7,-2.4c1.8,0 3.4,0.5 4.6,1.4c1.2,1 2.1,2.4 2.3,3.9l-3.1,0.2c-0.1,-0.9 -0.5,-1.7 -1.2,-2.4c-0.6,-0.6 -1.5,-0.9 -2.7,-0.9c-1.6,0 -2.7,0.5 -3.4,1.6s-1,3.1 -1,5.6l0,0zm17.7,-5.8l0,0c0.6,-1 1.4,-1.9 2.4,-2.6c1,-0.6 2.2,-0.9 3.4,-0.8c2,0 3.4,0.5 4.3,1.5s1.4,2.6 1.4,4.8l0,12l-3,0l0,-11.4c0,-1.3 -0.1,-2.2 -0.4,-2.8c-0.2,-0.6 -0.6,-1.1 -1.1,-1.4c-0.7,-0.3 -1.4,-0.5 -2.2,-0.4c-1.4,0 -2.5,0.5 -3.4,1.5c-0.9,1.1 -1.3,2.5 -1.3,3.9l0,10.6l-3,0l0,-24.6l3,0l0,6.4c0,0.7 0,1.4 -0.1,2.1c0,0.7 0,1.1 0,1.2l0,0zm95.8,14.9l-3.2,0l0,-3.7l3.2,0l0,3.7zm25.1,0l-3.5,0l-7,-10.2l-7.2,10.2l-3.5,0l8.9,-12.1l-8.2,-11.2l3.5,0l6.5,9.2l6.3,-9.2l3.5,0l-8,11.1l8.7,12.2zm13.9,-21.1c-2.6,0 -4.6,0.8 -6.1,2.5c-1.4,1.7 -2.2,3.9 -2.2,6.8c0,2.9 0.8,5.2 2.2,6.9c1.5,1.7 3.8,2.7 6.1,2.6c3.3,0 5.8,-1.6 7.4,-4.8l2.6,1.3c-0.9,1.9 -2.3,3.5 -4.1,4.6s-3.9,1.6 -6.1,1.6c-2.4,0 -4.4,-0.5 -6.1,-1.5c-1.7,-1 -3.1,-2.4 -3.9,-4.2c-0.9,-2 -1.4,-4.2 -1.3,-6.5c0,-3.7 1,-6.6 3,-8.8s4.8,-3.2 8.4,-3.2c2.5,0 4.6,0.5 6.2,1.5c1.7,1 3,2.5 3.7,4.3l-3,1c-0.5,-1.3 -1.4,-2.4 -2.6,-3.1c-1.2,-0.7 -2.7,-1.1 -4.2,-1l0,0zm30.9,0.3l-13.5,0l0,8.7l13.1,0l0,2.6l-13.1,0l0,9.5l-3.2,0l0,-23.3l16.7,0l0,2.5zm119,20.8l-3.7,0l-6.1,-9.7l-7.3,0l0,9.7l-3.2,0l0,-23.3l11,0c2.6,0 4.7,0.6 6.1,1.8c1.5,1.2 2.3,3 2.2,4.9c0,1.7 -0.5,3.2 -1.5,4.4c-1.1,1.2 -2.6,2 -4.2,2.2l6.7,10zm-4.1,-16.7c0,-1.4 -0.5,-2.4 -1.4,-3.1c-0.9,-0.7 -2.2,-1.1 -4,-1.1l-7.5,0l0,8.6l7.7,0c1.7,0 3,-0.4 3.9,-1.2c0.8,-0.7 1.4,-1.9 1.3,-3.2zm28.3,16.7l-3.2,0l-2.7,-6.8l-10.7,0l-2.7,6.8l-3.3,0l9.6,-23.3l3.6,0l9.4,23.3zm-10.8,-19.6l-0.5,-1.4l-0.2,0.5c-0.3,0.9 -0.7,2.1 -1.2,3.5l-3,7.7l8.8,0l-3,-7.7c-0.2,-0.8 -0.5,-1.6 -0.9,-2.6l0,0zm41.7,-3.8l-6.9,23.3l-3.8,0l-4.1,-14.8c-0.3,-0.9 -0.7,-2.6 -1.2,-5l-0.7,3.2c-0.2,0.9 -1.7,6.4 -4.5,16.6l-3.8,0l-6.9,-23.3l3.3,0l4.2,14.8c0.5,1.9 1,3.8 1.4,5.7c0.3,-1.2 0.6,-2.5 0.9,-4c0.3,-1.4 1.9,-7 4.6,-16.6l3,0l4.1,14.5c0.6,2.4 1.1,4.4 1.5,6l0.2,-0.6l0.7,-3.1c0.2,-0.8 1.8,-6.4 4.7,-16.9l3.3,0.2zm117.4,23.4l-3.2,0l-2.7,-6.8l-10.7,0l-2.7,6.8l-3.3,0l9.6,-23.3l3.6,0l9.4,23.3zm-10.8,-19.6l-0.5,-1.4l-0.2,0.5c-0.3,0.9 -0.7,2.1 -1.2,3.5l-3,7.7l8.8,0l-3,-7.7c-0.3,-0.8 -0.6,-1.6 -0.9,-2.6l0,0zm32.7,19.6l-3.8,0l-12.5,-19.9l0.1,1.6l0.1,2.8l0,15.5l-2.8,0l0,-23.3l3.7,0l12.7,20c-0.1,-2.2 -0.2,-3.7 -0.2,-4.7l0,-15.3l2.9,0l-0.2,23.3zm24.8,-23.4l-9,13.7l0,9.7l-3.2,0l0,-9.7l-9,-13.7l3.5,0l7.1,11.1l7.1,-11.1l3.5,0z" class="st16"/>
  <g id="svg_66">
   <polygon id="svg_67" points="582,176 600.7999877929688,176 600.7999877929688,168.39999389648438 582,168.39999389648438 582,154.1999969482422 574.0999755859375,154.1999969482422 574.0999755859375,168.39999389648438 556.2999877929688,168.39999389648438 556.2999877929688,176 574.0999755859375,176 574.0999755859375,196 553.2999877929688,196 553.2999877929688,203.60000610351562 604.4000244140625,203.60000610351562 604.4000244140625,196 582,196 " class="st16"/>
   <path id="svg_68" d="m568,131.4l-7.9,-0.9c-1.1,3.8 -2.4,7.6 -4,11.2l-23.2,0l0,7.6l19.5,0c-5.5,9.9 -13,18.9 -22.4,26.7l4.9,6.3c2.6,-2.3 5.2,-4.5 7.7,-7.1l0,31.4l7.7,0l0,-39.9c4.3,-5.4 7.9,-11.2 11.1,-17.4l43.3,0l0,-7.6l-39.9,0c1,-3.5 2.1,-6.9 3.2,-10.3z" class="st16"/>
   <path id="svg_69" d="m631.1,163.4c-3.8,6.5 -6.8,11.2 -9.3,14c-1,0.9 -2.1,1.6 -3.5,2.1l2.1,7.1c7.8,-1 16.1,-3 24.9,-5.9l0,-6.9c-5.4,1.8 -10.6,3.3 -15.7,4.4c4.5,-5.9 10.1,-15.1 16.7,-27.8l-6.9,-2.6c-1.5,3.1 -3,6 -4.5,8.8c-2.9,0.4 -5.8,0.8 -8.7,1c3.9,-6 7.8,-14.1 11.7,-23.9l-7.4,-2.9c-2.9,8.9 -6.3,17.1 -10.2,24.6c-1,1.4 -2,2.4 -3.1,2.9l1.9,7.1c4.2,-0.9 8.1,-1.5 12,-2z" class="st16"/>
   <path id="svg_70" d="m684.7,140.5c-2.1,-2.6 -5.2,-5.9 -9.1,-9.6l-5.9,3.8c3.8,3.7 6.8,7.1 8.9,10.1l6.1,-4.3z" class="st16"/>
   <path id="svg_71" d="m646.2,189c-7.9,2.9 -17.4,5.3 -28.2,7.1l1,7.6c10.2,-1.9 19.3,-4.3 27.2,-7.4l0,-7.3l0,0z" class="st16"/>
   <path id="svg_72" d="m680.9,197c-2,0 -4.2,-2 -6.5,-5.7c4.7,-4.3 9.1,-9.3 13.1,-15.2l-6,-4.2c-3,4.5 -6.4,8.7 -10.2,12.2c-1,-3 -2,-6.4 -2.6,-10.2l-0.4,-2.4l21,-3.3l-1.1,-7.3l-20.8,3.3c-0.4,-2.9 -0.5,-5.9 -0.6,-9.2l20.4,-2.9l-1,-7.2l-19.4,2.6l0,-16.5l-7.8,0l0,17.5l-11.8,1.8l1.1,7.2l10.8,-1.5c0.1,3.3 0.4,6.3 0.6,9.3l-14,2.1l1,7.3l14,-2.1c0.4,1.8 0.6,3.5 1,5.3c1,4 2.1,7.8 3.5,11.2c-5.7,4.3 -12.2,7.4 -19.5,9.8l4.5,6.2c6.5,-2 12.7,-5 18.5,-9.3c0.4,0.6 0.9,1.4 1.5,2.1c3.7,4.9 7.6,7.4 11.6,7.4c4.5,0 7.9,-5.3 10.5,-15.7l-6.5,-4.4c-1.5,7.9 -3,11.8 -4.9,11.8z" class="st16"/>
   <path id="svg_73" d="m735.3,135.1l-25,0l0,65.4l9.2,0l0,-25.5l15.7,0c14.4,0 21.7,-6.7 21.7,-20c0.1,-13.3 -7.1,-19.9 -21.6,-19.9zm9.4,28.7c-2.1,1.9 -5.5,2.8 -10,2.8l-15,0l0,-22.9l15,0c4.5,0 7.8,0.9 9.9,2.8c2.1,1.6 3.3,4.5 3.3,8.6c-0.1,3.9 -1.3,6.8 -3.2,8.7z" class="st16"/>
   <path id="svg_74" d="m804.2,168.9c-2.3,-1.5 -7.7,-3.7 -15.8,-6.4c-5.7,-1.9 -9.2,-3.1 -10.5,-4c-3,-1.8 -4.5,-4 -4.5,-6.9c0,-3.3 1.3,-5.7 3.8,-7.2c2.1,-1.3 5.1,-1.9 9.2,-1.9c4.5,0 7.9,0.9 10.3,2.9c2.3,1.9 3.8,4.9 4.8,9.2l9.2,0c-0.6,-7.2 -2.9,-12.3 -7.2,-15.7c-4,-3.3 -9.4,-4.9 -16.5,-4.9c-6.4,0 -11.7,1.5 -15.9,4.7c-4.5,3.3 -6.6,7.8 -6.6,13.6c0,5.7 2.3,10.1 7,13.1c1.9,1.1 6.4,2.9 13.8,5.4c6.6,2.1 10.7,3.7 12,4.4c3.8,2.1 5.7,4.9 5.7,8.6c0,2.9 -1.4,5.2 -4.1,6.9c-2.7,1.6 -6.4,2.5 -10.9,2.5c-5.1,0 -8.8,-1 -11.3,-3c-2.7,-2.1 -4.4,-5.9 -5.1,-11.1l-9.2,0c0.5,8.2 3.3,14.2 8.3,18.1c4.2,3.1 9.9,4.8 17.2,4.8c7.6,0 13.5,-1.6 17.8,-4.9c4.2,-3.4 6.4,-7.9 6.4,-13.9c-0.1,-6.2 -2.8,-11 -7.9,-14.3z" class="st16"/>
   <rect id="svg_75" height="68.2" width="2.6" class="st32" y="139.4" x="499.7"/>
  </g>
  <text stroke="null" xml:space="preserve" text-anchor="start" font-family="Helvetica, Arial, sans-serif" font-size="24" id="svg_94" y="206" x="219.5" fill-opacity="null" stroke-opacity="null" stroke-width="0" fill="#000000"/>
  <text font-style="normal" stroke="null" transform="matrix(2.9748129374299634,0,0,4.222222328186035,-742.6048781059588,-351.22223377227783) " xml:space="preserve" text-anchor="start" font-family="'Palatino Linotype', 'Book Antiqua', Palatino, serif" font-size="24" id="svg_97" y="131" x="300" fill-opacity="null" stroke-opacity="null" stroke-width="0" fill="#000000">NK`s Blog</text>
  <text font-style="normal" xml:space="preserve" text-anchor="start" font-family="Oswald, sans-serif" font-size="21" id="svg_98" y="262" x="154" stroke-width="0" stroke="null" fill="#000000">欢迎关注公众号曰坛</text>
  <polyline stroke-linecap="round" id="svg_99" points="176.66666666666666,256 176.66666666666666,256 " fill-opacity="null" stroke-opacity="null" stroke-width="null" stroke="null" fill="none"/>
 </g>
</svg>